<svg xmlns="http://www.w3.org/2000/svg" fill-rule="evenodd" stroke-linejoin="round" stroke-miterlimit="1.4" clip-rule="evenodd" viewBox="0 0 2134 2134" width="96" height="96">
  <path d="M813.5 1646.6h97.4v28.3c-23-.1-46-.3-69 0 .3 26-.6 52 .5 77.8 19.1 1.2 38.3.3 57.5.5.4 9.4.8 18.9-.4 28.2-19.2-.1-38.4-.3-57.5.1v75c24.6.2 49.2.2 73.8 0l.1 28.7c-34.1-.2-68.3 0-102.4 0 .2-79.6.1-159.1 0-238.6zm529-.3c10-.7 20.3-1 30.5.1 5.8 15.2 10.4 30.8 16.3 46 4.8 14.5 9 29.1 13.7 43.7 3 8.8 4.7 18 8.6 26.5 6-17.2 10.4-35 16.2-52.2 6.2-21.6 15.4-42.2 21.9-63.7a131 131 0 0 1 30.3-.3c-17 48.7-35.3 97-52.7 145.5-2.3 5.8-1.8 12-1.8 18.2l.1 75.1h-28.8c.2-29 .2-57.8 0-86.7-2-10.6-6.8-20.5-10.4-30.7-14.4-40.6-29.8-80.8-44-121.5zm-688.9.3l46-.1V1858H751l.1-25.9c9.5.2 19 .2 28.4 0 0 17.7-.2 35.4 0 53H670.9c.3-66.7-.2-133.6.2-200.4 4.2-2.9 10-4.6 12.2-9.7-9.7-.4-19.4-.2-29 0-1.4-9.5-.7-19-.6-28.4zm502 0h56.6c4.2 31.3 9.3 62.5 13.9 93.7 2 25.6 5.5 51 8 76.5.3 2.3.3 5 2.2 6.7 3.4-27.5 5.6-55.2 8.6-82.7 4.6-31.3 9.6-62.6 13.4-94.1 19-.2 38 0 57.1-.1V1885H1287c0-70.2.3-140.5-.2-210.8l-4.2.6c-4.9 31.4-9.1 63-14.4 94.3-.9 7.3-2 14.6-3 21.8-3.7 24.7-8.2 49.2-11.1 73.9-12.4.2-24.7 0-37.1.1-3.4-25.2-7.7-50.3-11.6-75.5-5.3-38-11.7-76-17.2-114l-4-1.1c-.2 70.2-.2 140.4 0 210.7h-28.5c-1.2-12.9-.8-26 .1-38.9-1.2-25.6-.6-51.3-.8-77 .2-18.6-.5-37.2.8-55.7-1.2-13.1-.6-26.2-.7-39.4 0-9.1-.5-18.3.4-27.4zm-206.1 0c19 .1 38-.3 57.1.2 3.2 26 7 52.1 11.1 78 4.1 24.7 5.2 49.8 8.5 74.5 1.2 8.2.4 16.8 3.8 24.4 5-36.5 6.8-73.5 12.8-109.9 3.5-22.3 6.6-44.8 9.7-67.2h56.7c-.2 79.4-.2 159 0 238.5-9.6-.1-19 0-28.6 0 0-70.5.4-140.9-.1-211.2-5.3-.2-4.3 5.8-5.1 9.4-4.4 33.3-10.8 66.2-15 99.5-4 27.4-9 54.6-12.6 82.1h-37c-1.7-16.5-5-32.6-7.3-49-3.2-18.8-5.4-37.8-8.5-56.6-3.5-21.4-7-42.9-9.8-64.4-1.3-6.7-1.2-13.8-3.8-20.1l-3.3-1c-.6 70.4-.2 140.9-.2 211.2h-28.4v-238.4z"/>
  <path fill-rule="nonzero" d="M1007.6 251a628.8 628.8 0 0 1 640.8 386.2 627.5 627.5 0 0 1 42.2 321.8c-11 87-41 171.3-86.7 246.1a629.8 629.8 0 0 1-910.7 178.7 631 631 0 0 1-173-194.4A623.5 623.5 0 0 1 443.7 966a626.8 626.8 0 0 1 31-302.8A629.3 629.3 0 0 1 1007.6 251zM826.1 657.3a60.5 60.5 0 0 0 36 47.5c15 6.6 32.4 4.8 47.1-1.8 15.6 15.2 30.8 30.8 46.3 46-9 7-17 15-25 23.1-17 18-27.9 40.5-37.3 63a61.2 61.2 0 0 0-46.9 14c-12 11.4-21.3 27.4-20.5 44.4 0 15.2 8 29.3 18.1 40.1 13 13.2 32.1 17 50 15.7 9.3 23.8 22.5 46 39.3 65.2.8 38.7.2 77.5.4 116.2-10 .4-23-2.3-29.2 7.6-7.8 10.6-.2 28.4 13.6 28.1 22 .4 44 .6 66 0 14 0 20.9-18.7 12.4-29-6.1-8.5-17.7-6.4-26.7-6.7-.3-28.9 0-57.7-.2-86.5 7.3 4.1 14.8 7.8 22.4 11.2a169.9 169.9 0 0 0 96.4 14.2c25.5-2.1 49-13.3 71.2-25.3v86.3c-9 .4-20.8-1.7-26.8 7-8 10.1-1.7 28.5 12.2 28.7 22 .7 44 .5 66 .1 13.5 0 22-17.6 13.9-28.3-6.4-9.7-19.5-7-29.3-7.4.2-38.7-.4-77.4.3-116a211.6 211.6 0 0 0 39.3-65.3c11.3 0 23.1.1 33.7-4.8a58.4 58.4 0 0 0 33.8-61.9 60.6 60.6 0 0 0-26-39c-12.2-8.1-27.1-9.2-41.2-8.6-6-13.5-11.5-27.3-19.8-39.5a175.7 175.7 0 0 0-41.9-45.8c14.4-16.4 30.8-31 46-46.7a58 58 0 0 0 48.6 1 61.2 61.2 0 0 0 34.3-44.8 58.5 58.5 0 0 0-29.3-59.7 56.4 56.4 0 0 0-45.6-4 62.9 62.9 0 0 0-38 42.6 64.4 64.4 0 0 0 4.7 39.9c-17.4 17.4-34.7 35-52.3 52.2a182 182 0 0 0-155.2 0l-52.7-52.7a70 70 0 0 0 7.1-27c0-30.9-27.9-60.1-59.5-57.8-33-1-60.5 32.4-55.7 64.5zm107.8 292.4H1195c-15 34.6-45.1 62-80.4 75-23.3 9.7-49.3 10.3-74 7.3a145.7 145.7 0 0 1-106.7-82.3zm-58-77.4c14.6-3.5 29.7-1.4 44.4-1H1204c15.6.3 31.5-2.6 47 .5 6.1.7 11 5.5 14 10.7 6.3 11.2-.8 27.3-13.3 30.2-13.6 1.5-27.3 0-40.9.2-109 .2-217.9-.3-326.8.4a21 21 0 0 1-19.6-11.4c-6.6-10.6.1-26 11.6-29.6zm57.9-38.1c22.1-50 74.2-86.4 129.4-85.1 56-2.3 109.8 34.1 132 85-87 .4-174.3.2-261.4.1zM876 629.6c9.8-2.8 21 .5 26 9.9 8.1 11.6-.6 29-14.1 31-11.2 3-23-5-25.8-15.9-2.4-10.2 4.3-21.3 14-25zm363-.1c7-1.3 15.2-1.4 20.5 4.1 8.7 7.3 10.3 21.6 2.5 30-7.4 9.5-23.2 10-31.4 1.3-11.3-10.2-6.1-31.3 8.4-35.4z"/>
</svg>
